<svg xmlns="http://www.w3.org/2000/svg" viewBox="0 0 64 64"><g id="Layer_31" data-name="Layer 31"><path d="M13,41H35A12,12,0,0,1,47,53V63a0,0,0,0,1,0,0H1a0,0,0,0,1,0,0V53A12,12,0,0,1,13,41Z" style="fill:#7a838b"/><path d="M14,60A10,10,0,0,1,4,50H4a11.93,11.93,0,0,1,2.153-6.847A11.98,11.98,0,0,0,1,53V63H47V60Z" style="fill:#5d6972"/><polygon points="24 63 18 39 30 39 24 63" style="fill:#80bbce"/><rect x="21" y="33" width="6" height="8" style="fill:#ffd3b6"/><path d="M13,13H35a0,0,0,0,1,0,0V24A11,11,0,0,1,24,35h0A11,11,0,0,1,13,24V13a0,0,0,0,1,0,0Z" style="fill:#ffd3b6"/><path d="M21,36.575a10.8,10.8,0,0,0,6,0V33H21Z" style="fill:#f9b995"/><path d="M27,32A11,11,0,0,1,16,21V13H13V24a11,11,0,0,0,20.132,6.132A10.945,10.945,0,0,1,27,32Z" style="fill:#f9b995"/><path d="M25,1H23A12,12,0,0,0,11,13v4H23.343a4,4,0,0,0,2.829-1.172L28,14l1.828,1.828A4,4,0,0,0,32.657,17H37V13A12,12,0,0,0,25,1Z" style="fill:#f8c460"/><path d="M25.5,1.025C25.333,1.018,25.169,1,25,1H23A12,12,0,0,0,11,13v4h3V13A11.99,11.99,0,0,1,25.5,1.025Z" style="fill:#faaf42"/><path d="M12,17h1a0,0,0,0,1,0,0v6a0,0,0,0,1,0,0H12a3,3,0,0,1-3-3v0A3,3,0,0,1,12,17Z" style="fill:#f9b995"/><path d="M38,17h1a0,0,0,0,1,0,0v6a0,0,0,0,1,0,0H38a3,3,0,0,1-3-3v0A3,3,0,0,1,38,17Z" transform="translate(74 40) rotate(180)" style="fill:#ffd3b6"/><polygon points="23 45 21 59 24 63 27 59 25 45 23 45" style="fill:#f8c460"/><rect x="21.879" y="41.879" width="4.243" height="4.243" transform="translate(-24.083 29.858) rotate(-45)" style="fill:#f8c460"/><polygon points="21 37 18 41 19 47 24 41 21 37" style="fill:#a7d0e1"/><polygon points="27 37 30 41 29 47 24 41 27 37" style="fill:#a7d0e1"/><polygon points="30 39 36 44.455 32 47.727 34 49.909 24 63 30 39" style="fill:#5d6972"/><polygon points="18 39 12 44.455 16 47.727 14 49.909 24 63 18 39" style="fill:#5d6972"/><path d="M43,31V20a2,2,0,0,1,2-2H61a2,2,0,0,1,2,2V37a2,2,0,0,1-2,2H43.667a2,2,0,0,1-1.2-.4L35,33h6A2,2,0,0,0,43,31Z" style="fill:#a7d0e1"/><path d="M46,19V18H45a2,2,0,0,0-2,2V31a2,2,0,0,1-2,2H35l7.467,5.6a2,2,0,0,0,1.2.4H61a2,2,0,0,0,2-2V36h0A17,17,0,0,1,46,19Z" style="fill:#80bbce"/><rect x="49" y="27" width="8" height="8" style="fill:#f8c460"/><path d="M49,28.634V35h8v-.11A17.033,17.033,0,0,1,49,28.634Z" style="fill:#faaf42"/><path d="M47,27l6-5,6,5Z" style="fill:#f8c460"/><path d="M47.715,26.4,47,27h1C47.9,26.806,47.811,26.6,47.715,26.4Z" style="fill:#faaf42"/><path d="M19,21a1,1,0,0,0-1,1v1a1,1,0,0,0,2,0V22A1,1,0,0,0,19,21Z" style="fill:#7a838b"/><path d="M29,24a1,1,0,0,0,1-1V22a1,1,0,0,0-2,0v1A1,1,0,0,0,29,24Z" style="fill:#7a838b"/><path d="M61,21H59a1,1,0,0,1,0-2h2a1,1,0,0,1,0,2Z" style="fill:#fff"/></g></svg>