<svg xmlns="http://www.w3.org/2000/svg" viewBox="0 0 64 64"><g id="Layer_31" data-name="Layer 31"><rect x="5" y="27" width="54" height="36" style="fill:#7a838b"/><path d="M59,59.132,48.8,48.95a13.188,13.188,0,0,0-20.36-16.7A13.182,13.182,0,0,0,45.93,51.81L57.12,63H59ZM44.59,47.61a9,9,0,1,1,0-12.73A8.993,8.993,0,0,1,44.59,47.61Z" style="fill:#5d6972"/><path d="M59,27H5V63H59V60H41A33,33,0,0,1,8.278,31.251,2,2,0,0,1,10.269,29H59Z" style="fill:#5d6972"/><rect x="1" y="21" width="62" height="6" rx="2" style="fill:#a7d0e1"/><path d="M7,24a3,3,0,0,1-3-3H3a2,2,0,0,0-2,2v2a2,2,0,0,0,2,2H61a2,2,0,0,0,2-2V24Z" style="fill:#80bbce"/><polygon points="5 21 32 1 59 21 5 21" style="fill:#7a838b"/><path d="M22.739,10.786,33.975,2.463,32,1,5,21H59l-4.05-3H25.12A4,4,0,0,1,22.739,10.786Z" style="fill:#5d6972"/><path d="M14,57a2.975,2.975,0,0,0-1.368.344,3.986,3.986,0,0,0-7.264,0A2.995,2.995,0,1,0,4,63H14a3,3,0,0,0,0-6Z" style="fill:#72aa65"/><path d="M4,57a3,3,0,0,0,0,6H14a3,3,0,0,0,3-3H7A3,3,0,0,1,4,57Z" style="fill:#599149"/><path d="M27,37H37a2,2,0,0,1,2,2V63a0,0,0,0,1,0,0H25a0,0,0,0,1,0,0V39A2,2,0,0,1,27,37Z" style="fill:#a7d0e1"/><path d="M25,55.862V63H39V59.934A32.807,32.807,0,0,1,25,55.862Z" style="fill:#80bbce"/><rect x="9" y="37" width="6" height="6" style="fill:#a7d0e1"/><rect x="15" y="37" width="6" height="6" style="fill:#a7d0e1"/><rect x="9" y="43" width="6" height="6" style="fill:#a7d0e1"/><rect x="15" y="43" width="6" height="6" style="fill:#a7d0e1"/><path d="M62.41,59.54,50.8,47.95a13.188,13.188,0,0,0-20.36-16.7A13.182,13.182,0,0,0,47.93,50.81l11.6,11.6a2.033,2.033,0,0,0,2.88-2.87ZM46.59,46.61a9,9,0,1,1,0-12.73A8.993,8.993,0,0,1,46.59,46.61Z" style="fill:#f8c460"/><path d="M39,54.312v-4.1A9,9,0,0,1,30.292,37H27a1.989,1.989,0,0,0-1.563.766A13.293,13.293,0,0,0,28.7,50.38,13.138,13.138,0,0,0,39,54.312Z" style="fill:#80bbce"/><path d="M50.8,47.95c.023-.031.041-.065.064-.1A13.206,13.206,0,0,1,35.4,47.84a8.571,8.571,0,0,1-2.444-2.3,13.329,13.329,0,0,1-.5-16.065A13.179,13.179,0,1,0,47.93,50.81l11.6,11.6a2.033,2.033,0,0,0,2.88-2.87Z" style="fill:#faaf42"/><path d="M12.13,43H9V37h.54A33.026,33.026,0,0,0,12.13,43Z" style="fill:#80bbce"/><path d="M15,47.34V49H9V43h3.13A33.944,33.944,0,0,0,15,47.34Z" style="fill:#80bbce"/><path d="M15,47.31V49h1.41C15.92,48.453,15.452,47.888,15,47.31Z" style="fill:#80bbce"/><path d="M59,24H57a1,1,0,0,1,0-2h2a1,1,0,0,1,0,2Z" style="fill:#fff"/><circle cx="19" cy="39" r="1" style="fill:#fff"/><path d="M48.728,31.764A12.078,12.078,0,0,0,46.9,30.183a1,1,0,1,0-1.152,1.634,10.091,10.091,0,0,1,1.522,1.32,1,1,0,0,0,1.456-1.373Z" style="fill:#fff"/><polygon points="21 42 21 44 16 44 16 49 14 49 14 44 9 44 9 42 14 42 14 37 16 37 16 42 21 42" style="fill:#80bbce"/></g></svg>