<svg xmlns="http://www.w3.org/2000/svg" viewBox="0 0 64 64"><g id="Layer_31" data-name="Layer 31"><path d="M17,21H47a0,0,0,0,1,0,0V39a2,2,0,0,1-2,2H19a2,2,0,0,1-2-2V21A0,0,0,0,1,17,21Z" style="fill:#7a838b"/><path d="M47,23V21H17V39a2,2,0,0,0,2,2H45a2,2,0,0,0,2-2V38H33A13,13,0,0,1,20,25h0a2,2,0,0,1,2-2Z" style="fill:#5d6972"/><path d="M57.039,43h0a3.425,3.425,0,0,0-1.9.576L44,51H35a5.994,5.994,0,0,0-9.206-5.067A7.409,7.409,0,0,1,21.8,47H17V59H44.436a8,8,0,0,0,4.65-1.49l10.255-7.325A3.962,3.962,0,0,0,61,46.961h0A3.962,3.962,0,0,0,57.039,43Z" style="fill:#ffd3b6"/><path d="M52.086,54.51A8,8,0,0,1,47.436,56H29a9,9,0,0,1-9-9H17V59H44.436a8,8,0,0,0,4.65-1.49l10.255-7.325a3.963,3.963,0,0,0,1.419-1.871Z" style="fill:#f9b995"/><path d="M33,47H46a3,3,0,0,1,3,3v0a3,3,0,0,1-3,3H33a0,0,0,0,1,0,0V47A0,0,0,0,1,33,47Z" style="fill:#ffd3b6"/><path d="M46,50H36a3,3,0,0,0-3,3H45.814a3.146,3.146,0,0,0,3.123-2.4,2.926,2.926,0,0,0-.353-2.1A2.987,2.987,0,0,1,46,50Z" style="fill:#f9b995"/><path d="M13,45h2a2,2,0,0,1,2,2V59a2,2,0,0,1-2,2H13a0,0,0,0,1,0,0V45A0,0,0,0,1,13,45Z" style="fill:#a7d0e1"/><path d="M15,58H13v3h2a2,2,0,0,0,2-2V56A2,2,0,0,1,15,58Z" style="fill:#80bbce"/><path d="M1,43H11a2,2,0,0,1,2,2V61a2,2,0,0,1-2,2H1a0,0,0,0,1,0,0V43A0,0,0,0,1,1,43Z" style="fill:#7a838b"/><path d="M4,51V43H1V63H11a2,2,0,0,0,2-2V60h0A9,9,0,0,1,4,51Z" style="fill:#5d6972"/><rect x="15" y="17" width="34" height="4" rx="2" style="fill:#a7d0e1"/><path d="M18,19a2,2,0,0,1,2-2H17a2,2,0,0,0,0,4h3A2,2,0,0,1,18,19Z" style="fill:#80bbce"/><polygon points="17 17 32 1 47 17 17 17" style="fill:#7a838b"/><path d="M29.315,7.264,33.594,2.7,32,1,17,17H47l-2.812-3H32.233A4,4,0,0,1,29.315,7.264Z" style="fill:#5d6972"/><path d="M31,31h2a2,2,0,0,1,2,2v8a0,0,0,0,1,0,0H29a0,0,0,0,1,0,0V33A2,2,0,0,1,31,31Z" style="fill:#a7d0e1"/><path d="M33,38a12.964,12.964,0,0,1-4-.634V41h6V38Z" style="fill:#80bbce"/><rect x="21" y="25" width="4" height="4" style="fill:#a7d0e1"/><rect x="39" y="25" width="4" height="4" style="fill:#a7d0e1"/><path d="M63,20H62V19a1,1,0,0,0-2,0v1H59a1,1,0,0,0,0,2h1v1a1,1,0,0,0,2,0V22h1a1,1,0,0,0,0-2Z" style="fill:#f8c460"/><path d="M53,8h1V9a1,1,0,0,0,2,0V8h1a1,1,0,0,0,0-2H56V5a1,1,0,0,0-2,0V6H53a1,1,0,0,0,0,2Z" style="fill:#f8c460"/><path d="M1,12H2v1a1,1,0,0,0,2,0V12H5a1,1,0,0,0,0-2H4V9A1,1,0,0,0,2,9v1H1a1,1,0,0,0,0,2Z" style="fill:#f8c460"/><path d="M6,24H5a1,1,0,0,0,0,2H6v1a1,1,0,0,0,2,0V26H9a1,1,0,0,0,0-2H8V23a1,1,0,0,0-2,0Z" style="fill:#f8c460"/><path d="M47,20H45a1,1,0,0,1,0-2h2a1,1,0,0,1,0,2Z" style="fill:#fff"/></g></svg>