<svg xmlns="http://www.w3.org/2000/svg" viewBox="0 0 64 64"><g id="Layer_31" data-name="Layer 31"><path d="M44.266,9.036l-29-8c-.011,0-.022,0-.033,0a.991.991,0,0,0-.225-.016,1.1,1.1,0,0,0-.162,0,1,1,0,0,0-.18.061.986.986,0,0,0-.184.075c-.012.007-.025.007-.037.015l-12,8a1,1,0,0,0,1.11,1.664l11.62-7.747,28.559,7.879A.981.981,0,0,0,44,11a1,1,0,0,0,.265-1.964Z" style="fill:#a7d0e1"/><path d="M11,59h8a2,2,0,0,1,2,2v2a0,0,0,0,1,0,0H9a0,0,0,0,1,0,0V61A2,2,0,0,1,11,59Z" style="fill:#a7d0e1"/><rect x="1" y="9" width="12" height="4" style="fill:#7a838b"/><path d="M14,59H11a2,2,0,0,0-2,2v2h3V61A2,2,0,0,1,14,59Z" style="fill:#80bbce"/><rect x="17" y="9" width="46" height="4" style="fill:#7a838b"/><rect x="1" y="9" width="3" height="4" style="fill:#5d6972"/><rect x="17" y="9" width="2" height="4" style="fill:#5d6972"/><rect x="11" y="9" width="2" height="4" style="fill:#5d6972"/><polygon points="15 1 13 9 13 59 17 59 17 9 15 1" style="fill:#7a838b"/><rect x="3" y="13" width="6" height="4" style="fill:#a7d0e1"/><rect x="13" y="57" width="4" height="2" style="fill:#5d6972"/><rect x="3" y="13" width="6" height="2" style="fill:#80bbce"/><path d="M44,24a3.01,3.01,0,0,1-2.6-1.5,1,1,0,1,1,1.731-1A1,1,0,1,0,44,20a1,1,0,0,1-1-1V13a1,1,0,0,1,2,0v5.171A3,3,0,0,1,44,24Z" style="fill:#a7d0e1"/><polygon points="62.4 9 58.2 13 53.22 13 49.43 9.38 45.63 13 40.65 13 36.86 9.38 33.06 13 28.08 13 24.29 9.38 20.49 13 17.6 13 21.8 9 26.78 9 30.57 12.62 34.37 9 39.35 9 43.14 12.62 46.94 9 51.92 9 55.71 12.62 59.51 9 62.4 9" style="fill:#5d6972"/><polygon points="13 58.414 17 54.414 17 49.586 13.414 46 17 42.414 17 37.586 13.414 34 17 30.414 17 25.586 13.414 22 17 18.414 17 13.586 13 9.586 13 12.414 16.586 16 13 19.586 13 24.414 16.586 28 13 31.586 13 36.414 16.586 40 13 43.586 13 48.414 16.586 52 13 55.586 13 58.414" style="fill:#5d6972"/><path d="M59,43H29V61a2.17,2.17,0,0,0,2.308,2H56.692A2.17,2.17,0,0,0,59,61Z" style="fill:#7a838b"/><path d="M40,60a8,8,0,0,1-8-8V43H29V61a2,2,0,0,0,2,2H57a2,2,0,0,0,2-2V60Z" style="fill:#5d6972"/><rect x="27" y="39" width="34" height="4" rx="2" style="fill:#a7d0e1"/><path d="M30,41a2,2,0,0,1,2-2H29a2,2,0,0,0,0,4h3A2,2,0,0,1,30,41Z" style="fill:#80bbce"/><polygon points="29 35 44 23 59 35 29 35" style="fill:#7a838b"/><path d="M41.452,28.438,46.125,24.7,44,23,29,35H59l-3.75-3H42.7A2,2,0,0,1,41.452,28.438Z" style="fill:#5d6972"/><path d="M43,53h2a2,2,0,0,1,2,2v8a0,0,0,0,1,0,0H41a0,0,0,0,1,0,0V55A2,2,0,0,1,43,53Z" style="fill:#a7d0e1"/><rect x="41" y="60" width="6" height="3" style="fill:#80bbce"/><rect x="33" y="47" width="4" height="4" style="fill:#a7d0e1"/><rect x="51" y="47" width="4" height="4" style="fill:#a7d0e1"/><path d="M48.3,30a1,1,0,0,1-.624-.219l-1.25-1a1,1,0,0,1,1.25-1.562l1.25,1A1,1,0,0,1,48.3,30Z" style="fill:#fff"/></g></svg>