<svg xmlns="http://www.w3.org/2000/svg" viewBox="0 0 64 64"><g id="Layer_31" data-name="Layer 31"><rect x="5" y="27" width="54" height="36" style="fill:#7a838b"/><path d="M59,45.372A12,12,0,1,0,44.211,63h9.578A12.04,12.04,0,0,0,59,58.628Z" style="fill:#5d6972"/><path d="M59,27H5V63H59V60H41A33,33,0,0,1,8.278,31.251,2,2,0,0,1,10.269,29H59Z" style="fill:#5d6972"/><rect x="1" y="21" width="62" height="6" rx="2" style="fill:#a7d0e1"/><polygon points="5 21 32 1 59 21 5 21" style="fill:#7a838b"/><path d="M7,24a3,3,0,0,1-3-3H3a2,2,0,0,0-2,2v2a2,2,0,0,0,2,2H61a2,2,0,0,0,2-2V24Z" style="fill:#80bbce"/><path d="M22.739,10.786,33.975,2.463,32,1,5,21H59l-4.05-3H25.12A4,4,0,0,1,22.739,10.786Z" style="fill:#5d6972"/><circle cx="51" cy="51" r="12" style="fill:#f8c460"/><path d="M59,46a1,1,0,0,1-.8-.4,9.034,9.034,0,0,0-1.8-1.8,1,1,0,0,1,1.2-1.6,11.057,11.057,0,0,1,2.2,2.2A1,1,0,0,1,59,46Z" style="fill:#fff"/><path d="M54,60a11.991,11.991,0,0,1-9.847-18.847A11.995,11.995,0,1,0,60.847,57.847,11.93,11.93,0,0,1,54,60Z" style="fill:#faaf42"/><path d="M14,57a2.975,2.975,0,0,0-1.368.344,3.986,3.986,0,0,0-7.264,0A2.995,2.995,0,1,0,4,63H14a3,3,0,0,0,0-6Z" style="fill:#72aa65"/><path d="M4,57a3,3,0,0,0,0,6H14a3,3,0,0,0,3-3H7A3,3,0,0,1,4,57Z" style="fill:#599149"/><path d="M27,37H37a2,2,0,0,1,2,2V63a0,0,0,0,1,0,0H25a0,0,0,0,1,0,0V39A2,2,0,0,1,27,37Z" style="fill:#a7d0e1"/><path d="M39,58.628V45.372a11.983,11.983,0,0,0,0,13.256Z" style="fill:#80bbce"/><path d="M25,55.862V63H39V59.934A32.807,32.807,0,0,1,25,55.862Z" style="fill:#80bbce"/><rect x="9" y="37" width="6" height="6" style="fill:#a7d0e1"/><rect x="15" y="37" width="6" height="6" style="fill:#a7d0e1"/><rect x="9" y="43" width="6" height="6" style="fill:#a7d0e1"/><rect x="15" y="43" width="6" height="6" style="fill:#a7d0e1"/><path d="M12.13,43H9V37h.54A33.026,33.026,0,0,0,12.13,43Z" style="fill:#80bbce"/><path d="M15,47.34V49H9V43h3.13A33.944,33.944,0,0,0,15,47.34Z" style="fill:#80bbce"/><path d="M15,47.31V49h1.41C15.92,48.453,15.452,47.888,15,47.31Z" style="fill:#80bbce"/><path d="M53,46a1,1,0,0,1,1,1,1,1,0,0,0,2,0,3,3,0,0,0-3-3H52V43a1,1,0,0,0-2,0v1H49a3,3,0,0,0-3,3v2a3,3,0,0,0,3,3h1v4H49a1,1,0,0,1-1-1,1,1,0,0,0-2,0,3,3,0,0,0,3,3h1v1a1,1,0,0,0,2,0V58h1a3,3,0,0,0,3-3V53a3,3,0,0,0-3-3H52V46Zm0,6a1,1,0,0,1,1,1v2a1,1,0,0,1-1,1H52V52Zm-3-2H49a1,1,0,0,1-1-1V47a1,1,0,0,1,1-1h1Z" style="fill:#7a838b"/><circle cx="36" cy="51" r="1" style="fill:#7a838b"/><path d="M59,24H57a1,1,0,0,1,0-2h2a1,1,0,0,1,0,2Z" style="fill:#fff"/><circle cx="19" cy="39" r="1" style="fill:#fff"/><polygon points="21 42 21 44 16 44 16 49 14 49 14 44 9 44 9 42 14 42 14 37 16 37 16 42 21 42" style="fill:#80bbce"/></g></svg>