<svg xmlns="http://www.w3.org/2000/svg" viewBox="0 0 64 64"><g id="Layer_31" data-name="Layer 31"><rect x="5" y="27" width="54" height="36" style="fill:#7a838b"/><path d="M59,48.8V43.2a2.963,2.963,0,0,0-.8-.177A2.99,2.99,0,0,0,53.979,38.8a2.985,2.985,0,0,0-5.958,0A2.99,2.99,0,0,0,43.8,43.021a2.985,2.985,0,0,0,0,5.958A2.99,2.99,0,0,0,46,54a2.932,2.932,0,0,0,1-.183V63h1l3-3,3,3h1V53.817A2.932,2.932,0,0,0,56,54a2.99,2.99,0,0,0,2.2-5.021A2.963,2.963,0,0,0,59,48.8Z" style="fill:#5d6972"/><path d="M59,27H5V63H59V60H41A33,33,0,0,1,8.278,31.251,2,2,0,0,1,10.269,29H59Z" style="fill:#5d6972"/><path d="M27,37H37a2,2,0,0,1,2,2V63a0,0,0,0,1,0,0H25a0,0,0,0,1,0,0V39A2,2,0,0,1,27,37Z" style="fill:#a7d0e1"/><path d="M25,55.862V63H39V59.934A32.807,32.807,0,0,1,25,55.862Z" style="fill:#80bbce"/><rect x="9" y="37" width="6" height="6" style="fill:#a7d0e1"/><rect x="15" y="37" width="6" height="6" style="fill:#a7d0e1"/><rect x="9" y="43" width="6" height="6" style="fill:#a7d0e1"/><rect x="15" y="43" width="6" height="6" style="fill:#a7d0e1"/><rect x="1" y="21" width="62" height="6" rx="2" style="fill:#a7d0e1"/><path d="M7,24a3,3,0,0,1-3-3H3a2,2,0,0,0-2,2v2a2,2,0,0,0,2,2H61a2,2,0,0,0,2-2V24Z" style="fill:#80bbce"/><polygon points="5 21 32 1 59 21 5 21" style="fill:#7a838b"/><path d="M22.739,10.786,33.975,2.463,32,1,5,21H59l-4.05-3H25.12A4,4,0,0,1,22.739,10.786Z" style="fill:#5d6972"/><path d="M14,57a2.975,2.975,0,0,0-1.368.344,3.986,3.986,0,0,0-7.264,0A2.995,2.995,0,1,0,4,63H14a3,3,0,0,0,0-6Z" style="fill:#72aa65"/><path d="M4,57a3,3,0,0,0,0,6H14a3,3,0,0,0,3-3H7A3,3,0,0,1,4,57Z" style="fill:#599149"/><polygon points="57 63 53 59 49 63 49 49 57 49 57 63" style="fill:#a7d0e1"/><path d="M49,54.817a3.039,3.039,0,0,0,1.021-.613,2.985,2.985,0,0,0,5.958,0A3.039,3.039,0,0,0,57,54.817V49H49Z" style="fill:#80bbce"/><path d="M63,45a2.991,2.991,0,0,0-2.8-2.979A2.99,2.99,0,0,0,55.979,37.8a2.985,2.985,0,0,0-5.958,0A2.99,2.99,0,0,0,45.8,42.021a2.985,2.985,0,0,0,0,5.958A2.99,2.99,0,0,0,50.021,52.2a2.985,2.985,0,0,0,5.958,0A2.99,2.99,0,0,0,60.2,47.979,2.991,2.991,0,0,0,63,45Z" style="fill:#f8c460"/><path d="M60,50a2.967,2.967,0,0,1-.562-.054,1.968,1.968,0,0,0-2,.781,2.979,2.979,0,0,1-4.951-.1,1.825,1.825,0,0,0-1.931-.68,3,3,0,0,1-3.507-3.507,1.936,1.936,0,0,0-.769-1.995,2.98,2.98,0,0,1-1.265-2.254,2.976,2.976,0,0,0,.777,5.788,2.976,2.976,0,0,0-.733,2.639,3.016,3.016,0,0,0,2.319,2.319,2.976,2.976,0,0,0,2.639-.733,2.985,2.985,0,0,0,5.958,0A2.99,2.99,0,0,0,61,50c0-.061-.014-.118-.017-.178A2.973,2.973,0,0,1,60,50Z" style="fill:#faaf42"/><circle cx="53" cy="45" r="4" style="fill:#a7d0e1"/><path d="M56,46a3.972,3.972,0,0,1-3.892-4.892,4,4,0,1,0,4.784,4.784A3.974,3.974,0,0,1,56,46Z" style="fill:#80bbce"/><path d="M12.13,43H9V37h.54A33.026,33.026,0,0,0,12.13,43Z" style="fill:#80bbce"/><path d="M15,47.34V49H9V43h3.13A33.944,33.944,0,0,0,15,47.34Z" style="fill:#80bbce"/><path d="M15,47.31V49h1.41C15.92,48.453,15.452,47.888,15,47.31Z" style="fill:#80bbce"/><circle cx="36" cy="51" r="1" style="fill:#7a838b"/><path d="M59,24H57a1,1,0,0,1,0-2h2a1,1,0,0,1,0,2Z" style="fill:#fff"/><circle cx="19" cy="39" r="1" style="fill:#fff"/><polygon points="21 42 21 44 16 44 16 49 14 49 14 44 9 44 9 42 14 42 14 37 16 37 16 42 21 42" style="fill:#80bbce"/></g></svg>