<?xml version="1.0" encoding="UTF-8"?>
<!-- Generator: Adobe Illustrator 28.2.0, SVG Export Plug-In . SVG Version: 6.00 Build 0)  -->
<svg xmlns="http://www.w3.org/2000/svg" xmlns:xlink="http://www.w3.org/1999/xlink" version="1.1" id="Layer_1" x="0px" y="0px" viewBox="0 0 93.3 93.2" style="enable-background:new 0 0 93.3 93.2;" xml:space="preserve">
<g>
	<path d="M46,8.7c0.7,0.4,1.5,0.6,2.1,1.1c1.2,0.9,1.6,2.2,1.5,3.7c-0.8,8.8-1.6,17.6-2.4,26.5c-0.3,3.2-0.6,6.4-0.9,9.7   c0,0.1,0,0.3,0,0.5c0.5,0,0.9,0,1.4,0c1,0,2,0,3,0c0.9,0,1.5,0.7,1.5,1.4c0,0.8-0.6,1.4-1.5,1.5c-0.2,0-0.5,0-0.7,0   c-3.7,0-7.4,0-11.1,0c-1.3,0-1.5,0.3-1.5,1.5c0,1.7,0,3.5,0,5.2c0,0.2,0,0.5,0,0.8c13.3,0,26.5,0,39.9,0c0-0.6,0-1.1,0-1.7   c0-1.5,0-2.9,0-4.4c0-1.1-0.3-1.4-1.4-1.4c-3.8,0-7.5,0-11.3,0c-1.4,0-2.1-0.5-2.1-1.5c0-1,0.7-1.5,2.1-1.5c3.7,0,7.4,0,11.2,0   c2.9,0,4.5,1.6,4.5,4.5c0,2.3,0,4.6,0,7c0,0.2,0.1,0.6-0.1,0.7c-0.5,0.7-0.2,1.3,0,2c0.1,0.4,0.1,0.8,0.1,1.2c0,3.5,0,6.9,0,10.4   c0,4.6-2.4,7.6-6.9,8.5c-0.1,0-0.1,0.1-0.2,0.1c-17.4,0-34.8,0-52.2,0c-3.5-1.4-4.3-2.6-4.3-6.4c0-4.8,0.1-9.6-0.5-14.3   c-0.5-4.5-0.8-9-1.3-13.6c-0.5-5.2-0.9-10.3-1.4-15.5c-0.4-4.6-0.8-9.2-1.3-13.9c-0.2-2.5-0.5-5.1-0.7-7.6   c-0.1-2.1,1.1-3.8,3.2-4.5c0.1,0,0.3-0.1,0.4-0.2C25.5,8.7,35.8,8.7,46,8.7z M15.1,18.4c1.5,16.4,3,32.8,4.5,49.2c5,0,9.9,0,14.7,0   c0.2-1.5,0.4-2.9,0.6-4.4c0-0.1-0.1-0.2-0.1-0.3c-0.1-0.4-0.2-0.8-0.2-1.1c0-2.5,0-5,0-7.5c0-2.5,1.6-4.1,4.1-4.2   c1.1,0,2.1,0,3.2,0c0.5,0,1.1,0,1.6,0c1-10.6,1.9-21.1,2.9-31.7C35.8,18.4,25.5,18.4,15.1,18.4z M57.4,63.5c-6,0-12,0-18,0   c-1.4,0-2,0.5-2,2c0,3.6,0,7.1,0,10.7c0,3.3,2.1,5.4,5.4,5.4c9.7,0,19.4,0,29,0c3.3,0,5.5-2.1,5.5-5.5c0-3.5,0-6.9,0-10.4   c0-1.7-0.5-2.2-2.2-2.2C69.3,63.5,63.3,63.5,57.4,63.5z M14.8,15.4c0.4,0,0.7,0,1,0c9.7,0,19.3,0,29,0c1.6,0,1.6,0,1.8-1.6   c0.2-1.7-0.3-2.2-1.9-2.2c-9.4,0-18.7,0-28.1,0c-0.2,0-0.3,0-0.5,0c-0.9,0.1-1.5,0.6-1.4,1.5C14.7,13.9,14.8,14.6,14.8,15.4z    M24,81.5c0-1,0-1.9,0-2.8c0-1.8,1.3-3,3.1-3c2.2,0,4.4,0,6.6,0c0.3,0,0.5,0,0.8,0c0-1.7,0-3.4,0-5c-4.9,0-9.8,0-14.7,0   c0,3,0,5.9,0,8.8c0,1.1,0.8,1.9,1.8,2.1C22.3,81.6,23.1,81.5,24,81.5z M34.4,81.5c0-1,0-1.9,0-2.9c-2.5,0-5,0-7.5,0   c0,1,0,1.9,0,2.9C29.5,81.5,31.9,81.5,34.4,81.5z"></path>
	<path d="M58.3,41.3c-0.2,0.8-0.4,1.7-0.5,2.5c-0.2,1.1-0.9,1.6-1.8,1.4c-0.8-0.2-1.3-0.9-1.1-1.9c0.3-1.2,0.6-2.3,0.9-3.5   c0.1-0.3,0.1-0.6,0.1-0.9c-1.1-6.4,1.8-12.6,7.4-15.9c5.5-3.2,12.5-2.6,17.4,1.6c1.3,1.1,1.3,1.9,0,3c-1.4,1.2-2.3,2.6-2.9,4.3   c-2,5.4-5.9,8.6-11.4,9.9c-2.4,0.5-4.7,0.4-7.1-0.3c-0.2-0.1-0.5-0.1-0.7-0.2C58.5,41.3,58.5,41.3,58.3,41.3z M77.8,26.2   c-4.1-2.5-8.2-2.9-12.4-0.9c-3.8,1.8-6.8,6.2-6.7,9.6c0.1-0.1,0.2-0.2,0.3-0.3c1.2-0.9,2.3-1.9,3.5-2.7c0.7-0.5,1.6-0.2,2,0.5   c0.4,0.7,0.3,1.5-0.4,2c-0.2,0.1-0.4,0.3-0.6,0.4c-1.5,1-2.8,2.2-3.8,3.8c0.3,0.1,0.5,0.2,0.8,0.2c6,1.5,12.1-1.7,14.3-7.5   C75.5,29.4,76.4,27.7,77.8,26.2z"></path>
	<path d="M57.4,53c-0.8,0-1.5-0.6-1.5-1.4c0-0.8,0.6-1.5,1.4-1.5c0.8,0,1.5,0.6,1.5,1.5C58.9,52.4,58.2,53,57.4,53z"></path>
	<path d="M36.9,41.3c0,2.7-1.8,5.1-4.3,5.9c-2.6,0.8-5.4-0.1-6.9-2.3c-1.5-2.1-1.6-5.2,0-7.3c1-1.4,2.1-2.6,3.3-3.9   c0.9-1,2.5-1.1,3.4,0c1.2,1.3,2.3,2.6,3.4,4C36.6,38.8,36.9,40,36.9,41.3z M30.7,36.2c-0.7,0.9-1.4,1.7-2.1,2.5   c-0.3,0.3-0.5,0.6-0.7,0.9c-0.8,1.4-0.5,3.1,0.8,4.1c1.2,1,3,1,4.1-0.1c1.2-1,1.5-2.9,0.6-4.2C32.6,38.4,31.6,37.4,30.7,36.2z"></path>
	<path d="M57.3,77.3c-2.7,0-5.4,0-8.1,0c-1.3,0-1.8-0.5-1.8-1.8c0-2,0-3.9,0-5.9c0-1.2,0.5-1.8,1.8-1.8c5.4,0,10.9,0,16.3,0   c1.2,0,1.7,0.6,1.7,1.7c0,2,0,4,0,6.1c0,1.1-0.6,1.7-1.7,1.7C62.9,77.3,60.1,77.3,57.3,77.3z M50.5,70.8c0,1.2,0,2.3,0,3.5   c4.6,0,9.2,0,13.8,0c0-1.2,0-2.3,0-3.5C59.7,70.8,55.1,70.8,50.5,70.8z"></path>
</g>
</svg>
