<?xml version="1.0" encoding="UTF-8"?>
<!-- Generator: Adobe Illustrator 28.2.0, SVG Export Plug-In . SVG Version: 6.00 Build 0)  -->
<svg xmlns="http://www.w3.org/2000/svg" xmlns:xlink="http://www.w3.org/1999/xlink" version="1.1" id="Layer_1" x="0px" y="0px" viewBox="0 0 93.3 93.2" style="enable-background:new 0 0 93.3 93.2;" xml:space="preserve">
<g>
	<path d="M84.6,40.4c-0.5,1-1.3,1.5-2.5,1.3c-0.5-0.1-1.1,0-1.7,0c0,0.3,0,0.6,0,0.8c0,2.5,0,5,0,7.6c0,0.2,0,0.4,0,0.7   c-0.1,0.7-0.5,1-1.1,1c-0.6,0-1-0.4-1-1.1c0-1.7,0-3.4,0-5c0-1.3,0-2.6,0-3.9c-2.9,0-5.7,0-8.6,0c0,9.5,0,19.1,0,28.6   c0.3,0,0.7,0,1,0.1c1.2,0.3,1.9,1.3,1.9,2.6c0,2.8,0,5.6,0,8.4c0,0.3,0,0.5,0,0.9c1.8,0,3.5,0,5.2,0c0.2,0,0.4-0.3,0.5-0.5   c0.1-0.2,0-0.4,0-0.7c0-8.2,0-16.4,0-24.6c0-0.1,0-0.3,0-0.4c0-1.1,0.4-1.6,1.1-1.6c0.7,0,1.1,0.5,1.1,1.6c0,8.5,0,17,0,25.5   c0,2-1,3-3,3c-20.5,0-41,0-61.5,0c-2,0-3-1-3-3c0-12.9,0-25.8,0-38.7c0-0.3,0-0.6,0-1.1c-0.7,0-1.4,0-2.1,0c-1.4,0-2.1-0.7-2.1-2.1   c0-1.3,0-2.5,0-3.8c0-1.5,0.7-2.2,2.2-2.2c2.7,0,5.3,0,8,0c0.3,0,0.5,0,0.9,0c0-0.4,0-0.7,0-1c0-1.8,1.4-3.2,3.2-3.3   c0.9,0,1.8,0,2.7,0c0.8,0,1.2,0.4,1.2,1.1c0,0.7-0.5,1.1-1.3,1.1c-0.8,0-1.6,0-2.4,0c-0.9,0-1.3,0.4-1.3,1.3c0,6,0,12,0,18   c0,0.6,0.2,0.7,0.8,0.7c5,0,10,0,15,0c0.6,0,0.8-0.2,0.8-0.8c0-5.9,0-11.8,0-17.7c0-1.1-0.4-1.4-1.4-1.4c-2.1,0-4.2,0-6.3,0   c-0.6,0-1.1-0.2-1.2-0.8c0-0.4,0.2-0.8,0.4-1.1c0.2-0.2,0.6-0.2,0.9-0.2c2.1,0,4.2,0,6.4,0c2,0,3.4,1.4,3.5,3.4c0,0.2,0,0.5,0,0.8   c0.4,0,0.7,0,1,0c13.4,0,26.9,0,40.3,0c1.1,0,2,0.3,2.4,1.4C84.6,36.8,84.6,38.6,84.6,40.4z M31.4,70.4c0.4,0,0.6,0,0.9,0   c1.7,0,3.4,0,5.1,0c0.7,0,1.2,0.4,1.2,1c0,0.6-0.4,1.1-1.1,1.2c-0.2,0-0.4,0-0.7,0c-4.3,0-8.6,0-13,0c-0.7,0-0.9,0.2-0.9,0.9   c0,2.1,0,4.3,0,6.4c0,0.8,0,1.5,0,2.3c15.8,0,31.5,0,47.2,0c0-2.9,0-5.8,0-8.6c0-1,0-1-1-1c-8.7,0-17.5,0-26.2,0   c-0.3,0-0.6,0-1-0.1c-0.6-0.2-0.8-0.6-0.8-1.2c0.1-0.6,0.4-0.9,1-0.9c0.2,0,0.5,0,0.7,0c6,0,11.9,0,17.9,0c0.3,0,0.6,0,1,0   c0-0.3,0-0.6,0-0.9c0-1.6,0-3.2,0-4.7c0-1.1,0-1.1-1.1-1.1c-9.4,0-18.8,0-28.2,0c-0.2,0-0.4-0.1-0.6,0c-0.2,0.1-0.5,0.3-0.5,0.5   C31.4,66.3,31.4,68.3,31.4,70.4z M67.2,70.4c0-9.6,0-19.1,0-28.6c-6.5,0-13,0-19.4,0c0,6.6,0,13.1,0,19.7c0.3,0,0.6,0,0.9,0   c4.1,0,8.2,0,12.4,0c2,0,3,1,3,3c0,1.7,0,3.4,0,5.1c0,0.3,0,0.5,0,0.8C65.2,70.4,66.2,70.4,67.2,70.4z M15.1,41.8   c0,0.3,0,0.5,0,0.8c0,12.9,0,25.9,0,38.8c0,0.1-0.1,0.3,0,0.4c0.1,0.2,0.3,0.5,0.5,0.5c1.7,0,3.4,0,5.2,0c0-0.3,0-0.6,0-0.9   c0-2.6,0-5.2,0-7.9c0-2.1,0.7-2.9,2.8-3.2c0,0,0.1-0.1,0.1-0.1c0-5.5,0-10.9,0-16.5c-0.4,0-0.7,0-1,0c-1.9,0-2.9-1-2.9-2.9   c0-2.8,0-5.6,0-8.4c0-0.3,0-0.5,0-0.8C18.2,41.8,16.7,41.8,15.1,41.8z M40.9,41.8c0,3,0,6,0,8.9c0,2.1-1,3.1-3.1,3.1   c-3.6,0-7.2,0-10.8,0c-0.3,0-0.6,0-0.9,0c0,5.6,0,11.1,0,16.6c1.1,0,2.1,0,3.2,0c0-1.9,0-3.8,0-5.7c0-2.3,0.9-3.2,3.2-3.2   c4.1,0,8.1,0,12.2,0c0.3,0,0.6,0,0.9,0c0-6.6,0-13.1,0-19.7C43.9,41.8,42.5,41.8,40.9,41.8z M82.3,35.9c-13.9,0-27.6,0-41.4,0   c0,1.2,0,2.3,0,3.5c13.8,0,27.6,0,41.4,0C82.3,38.2,82.3,37.1,82.3,35.9z M11,39.4c3,0,5.9,0,8.8,0c0-1.2,0-2.4,0-3.5   c-3,0-5.9,0-8.8,0C11,37.1,11,38.3,11,39.4z"></path>
	<path d="M57.9,8.7c0.9,0.7,1,1.8,0.1,2.8c-0.9,1.1-0.9,1.1,0,2.3c0.9,1.1,0.8,2.6-0.1,3.7c-0.3,0.4-0.6,0.8-0.8,1.3   c-0.3,0.5-0.6,0.8-1.2,0.8C55.3,19.3,55,19,55,18.4c0-0.9,0.4-1.6,1-2.2c0.7-0.7,0.7-0.8,0-1.4c-1.4-1.4-1.4-2.9,0-4.3   c0.2-0.3,0.3-0.6,0.5-0.9c0.2-0.3,0.5-0.6,0.7-0.9C57.4,8.7,57.7,8.7,57.9,8.7z"></path>
	<path d="M37.6,8.7c0.9,0.7,1,1.7,0.2,2.8c-0.3,0.4-0.9,0.8-0.9,1.2c0,0.4,0.6,0.8,0.9,1.2c0.8,1.1,0.7,2.5-0.3,3.6   c-0.3,0.4-0.5,0.8-0.7,1.2c-0.2,0.5-0.6,0.9-1.2,0.8c-0.6-0.1-1-0.5-1-1.1c0-0.8,0.4-1.5,1-2.1c0.7-0.7,0.7-0.8,0-1.5   c-1.3-1.3-1.3-2.8,0-4.2c0.3-0.3,0.4-0.7,0.6-1c0.2-0.3,0.5-0.6,0.7-0.9C37.1,8.7,37.4,8.7,37.6,8.7z"></path>
	<path d="M47.8,8.7c0.8,0.8,0.9,1.6,0.2,2.6c-0.2,0.3-0.5,0.6-0.7,0.8c-0.4,0.4-0.4,0.7,0,1.1c0.6,0.6,1.1,1.2,1.1,2.1   c0,0.5-0.1,1.1-0.4,1.6c-0.4,0.7-1.1,1.2-1.3,2c-0.1,0.3-0.8,0.5-1.1,0.5c-0.4-0.1-0.8-0.6-0.8-0.9c-0.2-0.9,0.3-1.6,0.9-2.2   c0.7-0.7,0.7-0.8,0-1.5c-1.3-1.3-1.3-2.9,0-4.2c0.3-0.3,0.4-0.7,0.6-1c0.2-0.3,0.4-0.6,0.6-0.9C47.2,8.7,47.5,8.7,47.8,8.7z"></path>
</g>
</svg>
