<?xml version="1.0" encoding="UTF-8"?>
<svg xmlns="http://www.w3.org/2000/svg" id="Layer_1" viewBox="0 0 81.61 87.41">
  <defs>
    <style>.cls-1{fill:#282828;stroke-width:0px;}</style>
  </defs>
  <path class="cls-1" d="m14.57,16.02c0-4.05,0-7.96,0-11.87C14.58,1.43,16.01,0,18.72,0c14.72,0,29.44,0,44.16,0,2.71,0,4.14,1.44,4.14,4.16,0,3.91,0,7.82,0,11.86.92,0,1.78,0,2.65,0,1.27,0,2.55-.01,3.82,0,2.97.03,5.16,2.22,5.18,5.2.02,4.22,0,8.44,0,12.66,0,.33,0,.65,0,1.08.52,0,.97-.02,1.41,0,.91.05,1.49.58,1.49,1.5.02,3.85.02,7.71,0,11.56,0,.91-.58,1.45-1.49,1.5-.42.02-.85,0-1.34,0v29.1c.24.02.5.03.76.05,1.19.11,2.04.94,2.07,2.14.04,1.7.03,3.4,0,5.1-.02.91-.58,1.44-1.5,1.49-.27.02-.55,0-.82,0-25.65,0-51.3,0-76.94,0-1.98,0-2.31-.34-2.31-2.33,0-1.09,0-2.19,0-3.28,0-2.4.49-2.96,2.86-3.19v-29.08c-.45,0-.87.01-1.28,0-.98-.04-1.56-.56-1.57-1.51-.02-3.85-.02-7.71,0-11.56,0-.91.58-1.43,1.51-1.48.42-.02.85,0,1.4,0,0-.36,0-.68,0-1,0-4.16,0-8.32,0-12.47,0-3.33,2.13-5.46,5.47-5.46,2.03,0,4.06,0,6.19,0Zm29.31,62.61c-.59-3.64,1.25-5.79,4.84-5.79,3.97,0,7.95,0,11.92-.02.3,0,.82-.23.87-.44.36-1.49.63-3.01.94-4.55-.56-.28-1.05-.57-1.58-.8-.83-.36-1.18-.96-1.15-1.86.04-1.21,0-2.43.01-3.64.01-1.49.9-2.12,2.27-1.59,2.2.86,4.38,1.78,6.59,2.62,1.01.38,1.38,1.02,1.36,2.08-.05,2.55,0,5.1-.03,7.64,0,.54.19.8.62,1.14.74.58,1.52,1.28,1.89,2.11.4.91.34,2.02.49,3.09h2.79v-29.02h-34.84v29.03h3.02Zm34.75-40.69H2.96v8.63h75.68v-8.63ZM40.79,2.91c-7.25,0-14.5,0-21.75,0-1.51,0-1.55.04-1.55,1.51,0,7.73,0,15.47,0,23.2,0,1.45.05,1.5,1.47,1.5,14.56,0,29.12,0,43.69,0,1.38,0,1.46-.08,1.46-1.42,0-7.8,0-15.59,0-23.39,0-1.32-.09-1.41-1.38-1.41-7.31,0-14.62,0-21.93,0ZM5.83,34.9h69.93c0-4.67.02-9.28-.01-13.88,0-1.07-.82-2-1.86-2.03-2.26-.07-4.53-.02-6.86-.02,0,3.11,0,6.13,0,9.16,0,2.41-1.52,3.92-3.92,3.92-14.87,0-29.74,0-44.6,0-2.41,0-3.91-1.51-3.92-3.92,0-2.73,0-5.46,0-8.19,0-.32,0-.64,0-.99-2.29,0-4.44-.03-6.59.01-1.27.02-2.11.94-2.14,2.25-.03,1.3,0,2.61,0,3.91,0,3.24,0,6.48,0,9.79Zm2.91,43.72v-1.05c0-6.71,0-13.41,0-20.12,0-1.67.42-2.09,2.09-2.09,7.34,0,14.69,0,22.03,0,1.67,0,2.09.42,2.09,2.09,0,6.71,0,13.41,0,20.12,0,.35,0,.7,0,1.05h2.86v-29.03H5.88v29.03h2.87Zm69.89,3.02H2.99v2.81h75.65v-2.81Zm-58.27-23.3h-8.63v20.28h8.63v-20.28Zm3.01-.02v20.28h8.63v-20.28h-8.63Zm40.82,17.48h-11.82v2.8h11.82v-2.8Zm2.83-2.99c0-2.5,0-4.92-.01-7.34,0-.16-.14-.42-.28-.48-1.32-.56-2.66-1.08-4-1.62-.24.93-.02,1.51.86,1.76.29.08.55.26.81.4,1.11.58,1.29.96,1.04,2.19-.33,1.68-.66,3.36-1,5.08h2.57Zm-17.49,4.38c-.02-.78-.67-1.43-1.46-1.42-.82,0-1.49.71-1.45,1.52.04.78.72,1.41,1.5,1.38.78-.03,1.42-.7,1.4-1.48Zm20.4.05c.01-.78-.63-1.45-1.41-1.47-.82-.02-1.51.66-1.49,1.48.01.78.67,1.43,1.45,1.42.78,0,1.44-.65,1.45-1.43Z"></path>
  <path class="cls-1" d="m34.95,11.61h11.69c-.15-2.64-.08-5.24,3.25-5.74,3-.45,4.51.42,5.44,2.87.68,0,1.4,0,2.12,0,2.18.03,3.72,1.56,3.74,3.74.02,2.37.02,4.73,0,7.1-.02,2.17-1.57,3.69-3.75,3.73-.69.01-1.39,0-2.06,0-1.16,2.56-2.79,3.39-5.69,2.87-1.28-.23-2.34-.9-2.72-2.15-.33-1.11-.34-2.31-.5-3.56h-11.51c0,.37-.03.75,0,1.13.28,2.94-1.48,4.92-4.68,4.63-.42-.04-.85-.03-1.26-.12-1.24-.29-2.11-1.06-2.55-2.25-.17-.46-.38-.6-.84-.56-.57.05-1.15.03-1.73,0-1.93-.08-3.46-1.59-3.49-3.51-.04-2.52-.05-5.04,0-7.55.04-1.92,1.59-3.42,3.51-3.49.76-.03,1.51,0,2.26,0,1.16-2.74,2.55-3.33,5.75-2.81,3.14.51,3.16,3.13,3.01,5.68Zm-2.89,4.46c0-1.91,0-3.82,0-5.72,0-1.59-.03-1.61-1.64-1.6-.12,0-.24,0-.36,0-.59,0-.91.28-.91.88,0,4.27,0,8.54,0,12.81,0,.6.33.88.91.88.27,0,.55-.02.82,0,.85.07,1.21-.29,1.19-1.16-.03-2.03-.01-4.06-.01-6.09Zm17.48-.14c0,2.09.02,4.18,0,6.27-.01.83.33,1.18,1.14,1.12.21-.02.43-.02.64,0,.88.07,1.19-.35,1.16-1.19-.04-1.03,0-2.06,0-3.09,0-3.03,0-6.06,0-9.08,0-1.05-.16-1.19-1.22-1.2-.06,0-.12,0-.18,0-1.44,0-1.51.06-1.51,1.46,0,1.91,0,3.82,0,5.72Zm-14.53,1.49h11.54v-2.8h-11.54v2.8Zm-8.78-1.42c0-1.06-.03-2.12,0-3.18.03-.86-.31-1.25-1.18-1.17-.3.03-.66-.1-.89.03-.33.19-.81.54-.82.83-.07,2.33-.04,4.66-.04,6.99,0,.6.3.89.89.9.33,0,.67-.01,1,0,.73.03,1.04-.32,1.03-1.04-.02-1.12,0-2.24,0-3.36Zm29.14.03c0,1.03,0,2.06,0,3.08,0,1.16.13,1.28,1.32,1.28.24,0,.54.09.71-.02.33-.21.83-.53.84-.82.07-2.36.04-4.72.03-7.08,0-.55-.31-.82-.86-.83-.3,0-.61.02-.91,0-.8-.06-1.17.28-1.15,1.11.03,1.09,0,2.18,0,3.27Z"></path>
  <path class="cls-1" d="m17.44,68.43h-2.8v-2.81h2.8v2.81Z"></path>
  <path class="cls-1" d="m26.29,65.6h2.81v2.8h-2.81v-2.8Z"></path>
</svg>
