<?xml version="1.0" encoding="UTF-8"?>
<!-- Generator: Adobe Illustrator 28.2.0, SVG Export Plug-In . SVG Version: 6.00 Build 0)  -->
<svg xmlns="http://www.w3.org/2000/svg" xmlns:xlink="http://www.w3.org/1999/xlink" version="1.1" id="Layer_1" x="0px" y="0px" viewBox="0 0 93.3 93.2" style="enable-background:new 0 0 93.3 93.2;" xml:space="preserve">
<g>
	<path d="M41.9,8.7c1.4,0.2,2.8,0.4,4.2,0.6c6.8,1.2,13,3.5,18.2,8.3c1.1,1,2,2.2,2.9,3.3c0.5,0.6,0.4,1.3-0.1,1.8   c-0.5,0.4-1.2,0.3-1.7-0.3c-4.5-6-10.9-8.9-18-10.4c-2.4-0.5-5-0.8-7.5-0.9c-3.8-0.1-7.3,1-10.6,3c-0.1,0.1-0.3,0.2-0.4,0.3   c-0.7,0.4-1.3,0.2-1.7-0.4c-0.3-0.6-0.2-1.3,0.4-1.6c1.4-0.8,2.8-1.7,4.3-2.2c1.8-0.6,3.8-0.9,5.6-1.4c0.2,0,0.4-0.1,0.6-0.1   C39.4,8.7,40.7,8.7,41.9,8.7z"></path>
	<path d="M54.4,49.5c0.1,1.9-0.3,4.9-1.4,7.7c-2.3,6-6.8,9.4-13.1,10.5c-3,0.5-6,1.2-8.5,2.9c-3.6,2.4-5.5,5.7-5.4,10   c0,0.9-0.4,1.5-1.2,1.5c-0.7,0-1.2-0.5-1.2-1.5c0.1-5.9,2.9-10.2,8-12.9c2.5-1.3,5.2-1.9,8-2.4c7-1.3,11.6-6.2,12.3-13.3   c0.3-3,0.4-6.1-0.4-9c-1-3.3-2.8-6.1-5.5-8.1c-4.8-3.6-9-7.7-12.4-12.7c-0.4-0.6-0.8-1.2-1.2-1.9c-0.6-1-0.6-1.6,0.1-2.1   c0.7-0.4,1.3-0.2,1.9,0.8c2.4,3.8,5.3,7.3,8.6,10.3c1.3,1.2,2.7,2.3,4.1,3.4C52.1,36.8,54.5,42,54.4,49.5z"></path>
	<path d="M17.6,74.6c0-3.9,0.9-7.1,2.9-9.9c3.3-4.5,3.8-9.4,1.8-14.5c-0.9-2.4-2.1-4.6-2.9-7c-1.8-5-2.4-10.2-1.4-15.4   c0.1-0.8,0.7-1.3,1.3-1.2c0.7,0.1,1.1,0.7,1,1.5c-1,6.1,0,11.9,2.6,17.5c1.1,2.4,2.2,4.9,2.6,7.5c0.8,4.5-0.1,8.7-2.8,12.4   c-2.9,4.1-3.5,8.5-2.3,13.3c0.4,1.5,1,2.9,2.5,3.7c0.5,0.3,0.6,0.9,0.4,1.4c-0.3,0.6-0.9,0.9-1.4,0.6c-0.8-0.4-1.5-1-2.1-1.6   c-1.4-1.7-1.9-3.9-2.2-6C17.7,75.9,17.6,75,17.6,74.6z"></path>
	<path d="M30.7,46.5c1,0.4,1.3,0.7,1.2,1.7c-0.1,0.8-0.4,1.6-0.8,2.3c-0.5,0.9-0.4,1.6,0.6,1.8c0.9,0.2,1.9,0.3,2.9,0.2   c1.3-0.2,2.5-0.6,3.8-0.9c0.6-0.2,1.1-0.2,1.7,0.2c2.1,1.6,2.8,3.7,2.6,6.2c-0.2,2.1-1,4.1-2.4,5.7c-0.7,0.8-1.3,0.9-1.9,0.5   c-0.6-0.5-0.6-1.2,0-1.9c1.4-1.8,2.2-3.9,1.7-6.2c-0.1-0.3-0.2-0.6-0.3-0.8c-0.6-1.2-0.7-1.3-2-0.9c-2,0.6-4.1,0.9-6.1,0.5   c-2.9-0.6-3.5-2.5-3.2-4.8c0-0.3,0.5-0.6,0.7-0.9c0.1-0.2,0.2-0.5,0.1-0.6c-0.8-0.7-1-1.6-0.9-2.6c0.1-0.6-0.2-0.9-0.7-1   c-0.6-0.2-1.3-0.4-1.9-0.6c-0.6-0.2-0.9-0.6-0.9-1.3c-0.1-1.8,0.3-3.4,1.4-4.8c0.9-1.2,1.2-2.4,0.4-3.9c-1.9-3.8-0.2-9.9,3.3-12.3   c0.6-0.4,1.3-0.4,1.7,0.2c0.4,0.5,0.3,1.2-0.2,1.6c-2.8,2.2-3.4,5.1-2.9,8.5c0.1,0.4,0.2,0.7,0.3,1c1.2,2.2,0.7,4.1-0.6,6   c-0.4,0.6-0.7,1.3-1,2c-0.2,0.5-0.1,0.8,0.5,1c0.6,0.1,1.1,0.4,1.7,0.5c1.1,0.4,1.3,0.6,1.3,1.8C30.7,45.3,30.7,45.9,30.7,46.5z"></path>
	<path d="M29.5,18.2c-0.1,0.6-0.4,1-1,1.1c-3.3,0.6-4.7,2.1-4.9,5.6c0,0.3,0,0.7-0.2,0.9c-0.3,0.3-0.8,0.6-1.2,0.6   c-0.6,0-0.9-0.5-1-1.1c-0.1-0.9-0.2-1.9-0.5-2.7c-0.7-2-2-3.1-4.1-3.2c-0.7,0-1.2-0.5-1.2-1.1c0-0.6,0.4-1.2,1.1-1.2   c3.1,0,4.3-2.4,4.6-4.5c0.1-0.5,0.1-1,0.2-1.5c0.1-0.7,0.5-1.2,1.2-1.2c0.6,0,1.1,0.5,1.2,1.2c0.2,1.1,0.3,2.2,0.7,3.2   c0.7,1.7,2,2.6,3.9,2.7C29,17,29.5,17.5,29.5,18.2z M22.4,20.3c0.6-0.7,1.3-1.5,1.9-2.2c-0.6-0.7-1.3-1.5-1.9-2.1   c-0.6,0.7-1.3,1.5-1.9,2.2C21.1,18.9,21.8,19.6,22.4,20.3z"></path>
	<path d="M71,19.3c0.7,0,1.1,0.5,1.2,1.3c0.2,1,0.3,2.1,0.7,3.1c0.7,1.8,2,2.7,4,2.8c0.8,0,1.2,0.5,1.2,1.2c0,0.6-0.5,1.1-1.1,1.2   c-2.9,0.4-4.2,1.7-4.7,4.5c-0.1,0.4-0.1,0.8-0.1,1.2c-0.1,0.8-0.5,1.3-1.2,1.3c-0.7,0-1.1-0.5-1.2-1.3c-0.1-0.9-0.3-1.9-0.6-2.8   c-0.7-1.9-2-2.9-4.1-3c-0.7,0-1.2-0.5-1.2-1.1c0-0.6,0.4-1.2,1.1-1.2c2.9,0,4.2-2.2,4.6-4.5c0.1-0.5,0.1-1,0.2-1.5   C69.8,19.8,70.3,19.3,71,19.3z M70.9,25.5c-0.6,0.7-1.2,1.4-1.9,2.2c0.6,0.7,1.2,1.4,1.9,2.2c0.6-0.7,1.2-1.4,1.9-2.2   C72.2,26.9,71.6,26.2,70.9,25.5z"></path>
	<path d="M70.9,64.5c-0.1,0.5-0.4,1-1,1c-1.5,0.1-2.8,0.5-3.7,1.8c-0.8,1.2-1.1,2.6-1.2,4c0,0,0,0.1,0,0.1c-0.1,0.7-0.5,1.2-1.1,1.2   c-0.7,0-1.1-0.5-1.2-1.2c-0.1-0.8-0.2-1.7-0.5-2.5c-0.7-2-2-3.3-4.2-3.4c-0.7,0-1.2-0.5-1.2-1.1c0-0.6,0.4-1.2,1.1-1.2   c2.9,0,4.2-2.2,4.6-4.5c0.1-0.5,0.1-0.9,0.2-1.4c0.1-0.8,0.6-1.2,1.2-1.2c0.6,0,1,0.5,1.2,1.2c0.2,1.2,0.4,2.3,0.8,3.4   c0.7,1.6,2,2.4,3.7,2.5C70.4,63.2,71,63.7,70.9,64.5z M65.7,64.4c-0.6-0.7-1.3-1.5-1.9-2.2c-0.6,0.7-1.3,1.5-1.9,2.2   c0.6,0.7,1.3,1.5,1.9,2.2C64.4,65.8,65.1,65.1,65.7,64.4z"></path>
	<path d="M72.1,41.1c-0.2,5.3-1,10.6-2.4,15.8c-0.3,1-1.1,1.4-1.8,0.9c-0.5-0.3-0.6-0.8-0.5-1.4c0.7-3.5,1.4-6.9,1.9-10.4   c0.3-2.5,0.3-5,0.4-7.5c0-0.6,0.1-1,0.7-1.3c0.8-0.4,1.7,0.1,1.7,1.1C72.2,39.3,72.1,40.2,72.1,41.1z"></path>
	<path d="M74.2,84.5c-5.1-0.2-8.3-3.2-9.7-7.9c-0.2-0.7,0.1-1.3,0.8-1.5c0.6-0.2,1.2,0.1,1.5,0.9c0.3,0.7,0.5,1.5,0.9,2.2   c1.3,2.6,3.5,3.8,6.4,4c0.2,0,0.4,0,0.6,0c0.7,0.1,1.1,0.5,1.1,1.2c0,0.6-0.5,1.1-1.2,1.2C74.3,84.5,74.2,84.5,74.2,84.5z"></path>
</g>
</svg>
