<?xml version="1.0" encoding="UTF-8"?>
<svg xmlns="http://www.w3.org/2000/svg" id="Layer_1" viewBox="0 0 99.45 99.45">
  <defs>
    <style>.cls-1{fill:#282828;stroke-width:0px;}</style>
  </defs>
  <path class="cls-1" d="m0,17.1c.54-1.26.94-2.61,1.67-3.76.98-1.54,2.49-2.53,4.27-3,.58-.15.79-.41.94-1.01C8.02,4.56,10.96,1.44,15.75.33c4.45-1.03,8.24.43,11.28,3.77,1.28,1.4,2.11,3.1,2.49,4.98.12.58.37.78.95.83,6.92.59,11.99,6.13,11.82,13.08-.04,1.65-.55,3.28-.85,4.93,9.77,1.96,15.49,13.81,8.85,23.83,5.03,2.81,8.2,6.99,9.14,12.72.63,3.84.11,7.56-1.77,11.01-2.21,4.07-5.54,6.86-9.98,8.26-4.41,1.4-8.67.87-12.84-1.28v13.6h28.06v-4.93c-.54,0-1.08.03-1.61,0-.92-.06-1.54-.68-1.6-1.52-.06-.8.52-1.53,1.42-1.69.57-.1,1.15-.08,1.8-.12v-1.58c-.45,0-.92.03-1.39,0-1.15-.07-1.88-.78-1.83-1.72.04-.93.74-1.53,1.86-1.58.42-.02.83,0,1.34,0v-5c-.47,0-.98.02-1.48,0-1.01-.05-1.71-.73-1.73-1.62-.01-.88.69-1.6,1.69-1.66.51-.03,1.03,0,1.56,0,.27-.96.73-1.67,1.81-1.62.97.05,1.39.7,1.6,1.57h26.44c.23-.88.67-1.57,1.68-1.58,1.01,0,1.5.64,1.65,1.33,1.06.32,2.02.52,2.89.91.26.11.41.73.41,1.12,0,1.11-.7,1.45-3.19,1.61v4.96c.51,0,1.05-.03,1.58,0,.97.07,1.62.72,1.63,1.59.02.81-.57,1.5-1.48,1.64-.56.09-1.14.07-1.76.11v1.53c1.31.16,3.19-.32,3.19,1.73,0,2.02-1.82,1.54-3.16,1.68v4.89c1.16.2,2.74-.37,3.17,1.41.23.95-.42,1.48-1.1,1.96H0v-2.14c.51-.93,1.3-1.19,2.34-1.19,7.11.03,14.23.02,21.34.02h1.13v-13.64c-.34.15-.6.25-.86.37-8.31,3.94-18.36.36-22.2-8.02C.93,73.06.57,71.06,0,69.15c0-1.17,0-2.33,0-3.5.05-.15.12-.3.14-.46.6-4.83,2.81-8.75,6.65-11.73.81-.63,1.7-1.15,2.58-1.75-2.92-4.5-3.78-9.3-1.89-14.35,1.9-5.09,5.71-8.16,10.92-9.46-.1-1.11-.63-1.44-1.68-1.4-2.62.08-5.24.02-7.87.03-2.69,0-5-.84-6.82-2.89C.94,22.42.48,20.93,0,19.43,0,18.65,0,17.88,0,17.1Zm28.11,53.41c.04-.3.06-.42.06-.54,0-5.21.01-10.42-.02-15.63,0-.39-.26-.85-.54-1.14-2.26-2.31-4.57-4.59-6.85-6.88-.98-.98-1.1-1.98-.35-2.71.76-.74,1.7-.6,2.71.4,1.26,1.25,2.52,2.52,3.78,3.78.37.37.75.74,1.27,1.26,0-2.6-.01-4.93,0-7.25,0-1.23.66-1.97,1.67-1.96,1.01,0,1.62.74,1.63,1.99.01,2.1,0,4.21,0,6.31,0,.23.05.46.09.87,1.52-1.53,2.91-2.94,4.3-4.33.43-.43.86-.88,1.36-1.24.7-.51,1.43-.4,2.03.2.59.59.67,1.32.2,2.03-.19.29-.45.55-.7.8-2.24,2.25-4.5,4.47-6.71,6.74-.3.31-.54.82-.54,1.24-.04,5.11-.02,10.23-.02,15.34,0,.19.06.39.11.72,2.78-2.79,5.46-5.47,8.14-8.14.29-.29.62-.72.97-.76.58-.08,1.29-.05,1.78.22.64.36.77,1.11.44,1.8-.18.37-.47.69-.76.99-2.56,2.57-5.12,5.13-7.69,7.69-.91.91-1.85,1.8-2.75,2.68,2.69,4.59,8.54,7.1,13.61,5.92,6.09-1.42,10.49-6.44,10.98-12.54.5-6.18-3.02-11.8-8.88-14.19-1.84-.75-2.09-1.84-.78-3.32,3.28-3.71,4.14-7.97,2.34-12.54-1.75-4.46-5.22-6.85-10.02-7.26-2.11-.18-2.67-1.34-1.56-3.16,2-3.24,2.14-6.57.37-9.95-1.86-3.55-6.42-5.54-10.15-4.47-4.6,1.32-7.15,5.36-6.94,9.58.09,1.82.66,3.47,1.65,5,1.04,1.63.5,2.74-1.4,2.95-.55.06-1.1.08-1.64.19-4.42.92-7.5,3.48-8.87,7.78-1.38,4.32-.54,8.31,2.49,11.76,1.44,1.64,1.24,2.62-.79,3.5-.12.05-.24.11-.35.16-8.4,3.64-11.15,14.23-5.57,21.5,5.66,7.38,17.02,6.96,21.8-.95-.24-.19-.55-.38-.8-.63-3.19-3.17-6.37-6.36-9.55-9.54-.25-.25-.51-.5-.71-.79-.49-.7-.41-1.57.16-2.13.58-.57,1.44-.63,2.13-.13.29.21.53.47.78.72,2.66,2.65,5.31,5.3,8.1,8.08Zm-1.6-60.26c-.47-1.07-.79-2.18-1.38-3.1-1.98-3.06-5.44-4.4-8.92-3.56-3.35.8-5.73,3.6-6.18,7.25-.25,2.06-.39,2.2-2.46,2.52-2.49.38-4.32,2.53-4.25,5,.07,2.54,2,4.68,4.57,4.78,3.07.12,6.14.04,9.21.04.05,0,.11-.06.22-.12.17-6.21,3.16-10.5,9.2-12.8Zm39.86,67.68v4.89h26.39v-4.89h-26.39Zm0,13.29v4.86h26.43v-4.86h-26.43Zm-34.88,4.88v-1.11c0-4.43-.09-8.86.05-13.28.05-1.57-.59-2.54-1.71-3.39q-1.65,1.48-1.65,3.61c0,4.36,0,8.72,0,13.09v1.09h3.31Zm61.32-9.82h-26.45v1.49h26.45v-1.49Z"></path>
  <path class="cls-1" d="m81.1,41.38c-3.49,0-6.99.1-10.48-.03-3.94-.14-7.13-3.37-7.57-7.42-.41-3.8,2.09-7.58,5.77-8.64.64-.18.94-.44,1.08-1.11,1.02-4.85,4.9-8.43,9.86-9.16,4.51-.66,9.38,1.79,11.63,5.96.56,1.04.9,2.21,1.21,3.36.14.52.34.75.83.9,3.81,1.19,6.07,4.27,6.02,8.17-.05,4.09-3.47,7.79-7.56,7.94-3.59.13-7.18.03-10.78.03Zm.09-3.28s0,0,0,.01c3.3,0,6.6,0,9.9,0,.13,0,.26-.01.39-.02,3.23-.19,5.43-3.37,4.41-6.44-.71-2.12-2.26-3.22-4.46-3.46-1.33-.14-1.74-.55-1.9-1.86-.04-.29-.09-.58-.12-.86-.47-4.3-4.51-7.58-8.86-7.17-4.11.39-7.14,3.44-7.52,7.57-.17,1.8-.46,2.1-2.29,2.36-1.6.23-2.86.99-3.69,2.39-1.94,3.25.26,7.36,4.06,7.46,3.36.1,6.73.02,10.09.02Z"></path>
</svg>
