<?xml version="1.0" encoding="UTF-8"?>
<!-- Generator: Adobe Illustrator 28.2.0, SVG Export Plug-In . SVG Version: 6.00 Build 0)  -->
<svg xmlns="http://www.w3.org/2000/svg" xmlns:xlink="http://www.w3.org/1999/xlink" version="1.1" id="Layer_1" x="0px" y="0px" viewBox="0 0 93.3 93.2" style="enable-background:new 0 0 93.3 93.2;" xml:space="preserve">
<g>
	<path d="M85.9,68.8c-0.7,1.7-1.8,2.7-3.7,2.7c-1,0-1.9,0-3.1,0c0.2,0.3,0.3,0.5,0.5,0.7c1.8,2.6,3.6,5.2,5.5,7.9   c0.7,1,1,2.1,0.5,3.3c-0.5,1.3-1.4,2.1-2.8,2.3c-1.4,0.2-2.5-0.2-3.4-1.4c-0.7-0.9-1.3-1.8-1.9-2.7c-0.3-0.5-0.6-0.7-1.2-0.7   c-4.1,0-8.2,0-12.3,0c-0.2,0-0.5,0-0.7,0c-0.6-0.1-1.1-0.6-1-1.2c0.1-0.6,0.4-1,1.1-1.1c0.2,0,0.5,0,0.7,0c3.4,0,6.9,0,10.3,0   c0.3,0,0.6,0,1,0c-0.6-0.9-1.1-1.6-1.7-2.3c-0.1-0.2-0.5-0.1-0.8-0.1c-6.5,0-13.1,0-19.6,0c-9.4,0-18.9,0-28.3,0   c-0.6,0-1,0.1-1.3,0.7c-0.3,0.6-0.8,1.1-1.2,1.8c0.4,0,0.7,0,1,0c11.4,0,22.8,0,34.2,0c1.2,0,1.7,0.3,1.7,1.1   c0,0.8-0.5,1.2-1.7,1.2c-2.5,0-5,0-7.6,0c0,1,0,2,0,3c0,1.5-0.3,1.8-1.8,1.8c-1.2,0-2.5,0-3.7,0c-1.2,0-1.6-0.4-1.6-1.5   c0-1,0-2.1,0-3.2c-0.3,0-0.6,0-0.8,0c-6.9,0-13.8,0-20.7,0c-0.6,0-0.9,0.2-1.2,0.6c-0.5,0.8-1.1,1.6-1.7,2.4   c-1.3,1.8-3.4,2.3-5.1,1.1C12,84,11.7,81.9,13,80c2.4-3.5,4.9-7,7.4-10.6c0.2-0.2,0.3-0.5,0.5-0.8c-0.2-0.2-0.4-0.4-0.6-0.6   c-3.9-3.9-7.8-7.8-11.7-11.8c-2-2-1.3-5.2,1.4-6c1.5-0.4,2.7,0,3.8,1.1c3.8,3.8,7.6,7.6,11.4,11.4c1.1,1.1,2.3,1.6,3.9,1.6   c4.4-0.1,8.8,0,13.2,0c0.3,0,0.6,0,0.9,0c0-10.4,0-20.7,0-31c-1.7,0-3.3-0.1-4.9,0c-1.1,0.1-1.9-0.3-2.6-1.1   c-1-1.1-2.1-2.1-3.2-3.2c-1.2,1.2-2.4,2.4-3.5,3.6c-0.5,0.5-1,0.7-1.8,0.7c-4.4,0-8.8,0-13.3,0c-0.7,0-1.2-0.2-1.7-0.7   c-1.3-1.4-2.7-2.7-4-4c-1.1-1.1-1-1.8,0.4-2.4C21.1,20,33.6,13.8,46.2,7.5c0.1,0,0.1-0.1,0.2-0.1c0.2,0,0.4,0,0.6,0   c0,0,0.1,0.1,0.1,0.1c5.7,2.9,11.5,5.8,17.2,8.7c0.2,0.1,0.5,0.2,0.7,0.4c0.5,0.4,0.6,0.9,0.4,1.4c-0.3,0.6-0.8,0.8-1.4,0.6   c-0.3-0.1-0.5-0.2-0.8-0.4c-3.9-2-7.8-3.9-11.7-5.9c-0.2-0.1-0.5-0.2-0.7-0.3c3.4,4.8,6.9,9.5,10.5,14.1c0.2,0.2,0.6,0.3,0.9,0.3   c5.5,0,11,0,16.5,0c0.2,0,0.4,0,0.8-0.1c-1.8-0.9-3.4-1.7-5.1-2.5c-2-1-4-2-6-3c-0.7-0.3-0.9-0.9-0.6-1.5c0.3-0.6,0.9-0.8,1.6-0.5   c0.1,0,0.1,0.1,0.2,0.1c5.1,2.6,10.2,5.2,15.4,7.7c0.4,0.2,0.6,0.5,0.9,0.7c0,0.1,0,0.2,0,0.3c-1.6,1.7-3.2,3.4-4.7,5.1   c-0.5,0.5-1,0.8-1.7,0.8c-3.8,0-7.6-0.1-11.4,0c-2.1,0.1-3.6-0.4-4.9-2.1c-0.6-0.8-1.4-1.5-2.2-2.3c-1,1-1.9,1.8-2.7,2.7   c-1,1.3-2.2,1.7-3.8,1.6c-1.4-0.1-2.8,0-4.2,0c0,0.8,0,1.5,0,2.2c0,3.1,0,6.3,0,9.4c0,0.8-0.4,1.4-1.1,1.4c-0.7,0-1.2-0.5-1.2-1.4   c0-3.6,0-7.1,0-10.7c0-0.3,0-0.5,0-0.8c-0.9,0-1.6,0-2.4,0c0,10.3,0,20.6,0,30.9c0.8,0,1.6,0,2.4,0c0-0.3,0-0.6,0-0.9   c0-4.2,0-8.4,0-12.6c0-0.2,0-0.5,0-0.7c0.1-0.6,0.4-1,1.1-1.1c0.7,0,1,0.3,1.2,1c0.1,0.2,0,0.5,0,0.8c0,4.2,0,8.5,0,12.7   c0,0.3,0,0.5,0,0.9c0.4,0,0.7,0,1.1,0c10,0,20.1,0,30.1,0c2.2,0,3.8,0.6,4.5,2.8C85.9,67.8,85.9,68.3,85.9,68.8z M53.8,69.3   c9.3,0,18.6,0,28,0c0.3,0,0.6,0,0.9-0.1c0.6-0.2,1-0.6,0.9-1.2c0-0.7-0.4-1.1-1.1-1.2c-0.3,0-0.7,0-1,0c-17.6,0-35.1,0-52.7,0   c-2,0-3.7-0.7-5.1-2.1c-3.7-3.8-7.5-7.6-11.3-11.3c-0.2-0.2-0.4-0.4-0.6-0.5c-0.6-0.4-1.3-0.4-1.7,0.1c-0.4,0.5-0.4,1.1,0,1.7   c0.1,0.2,0.3,0.3,0.5,0.5c4.5,4.5,9,8.9,13.4,13.4c0.5,0.5,1.1,0.8,1.8,0.8C35.1,69.3,44.4,69.3,53.8,69.3z M34.7,26.4   c8,0,15.9,0,23.9,0c-4-5.3-7.9-10.6-11.9-15.9C42.6,15.8,38.7,21,34.7,26.4z M13.8,26.2c0,0,0,0.1,0,0.1c0.1,0,0.2,0,0.3,0   c5.7,0,11.4,0,17.1,0c0.3,0,0.7-0.3,0.9-0.5c3.4-4.4,6.7-8.9,10-13.3c0.1-0.1,0.2-0.3,0.3-0.5c0,0-0.1-0.1-0.1-0.1   C32.9,16.7,23.4,21.5,13.8,26.2z M50.2,74c7.3,0,14.5,0,21.9,0c-0.4-0.6-0.9-1.2-1.2-1.8c-0.3-0.5-0.6-0.7-1.2-0.7   c-6.2,0-12.4,0-18.7,0c-0.2,0-0.5,0-0.8,0C50.2,72.4,50.2,73.2,50.2,74z M35.4,28.7c0,0.1-0.1,0.1-0.1,0.2c0.6,0.6,1.3,1.2,2,1.8   c0.3,0.2,0.7,0.4,1,0.4c5.7,0,11.3,0,17,0c0.2,0,0.5,0,0.6-0.1c0.8-0.7,1.5-1.4,2.3-2.3C50.4,28.7,42.9,28.7,35.4,28.7z M43.1,71.6   c-0.2,0-0.3,0-0.4,0c-4.9,0-9.8,0-14.8,0c-0.2,0-0.4,0-0.5,0.2c-0.5,0.7-1,1.4-1.6,2.2c5.8,0,11.5,0,17.2,0   C43.1,73.2,43.1,72.4,43.1,71.6z M81.7,28.8c-6,0-11.9,0-18,0c0.8,0.8,1.5,1.5,2.3,2.2c0.2,0.1,0.5,0.2,0.7,0.2c4.1,0,8.2,0,12.3,0   c0.2,0,0.5,0,0.6-0.2C80.3,30.3,81,29.6,81.7,28.8z M29.5,28.8c-6.1,0-12.1,0-18,0c0,0.1-0.1,0.1-0.1,0.2c0.6,0.6,1.3,1.2,2,1.8   c0.3,0.2,0.7,0.4,1,0.4c4.1,0,8.1,0,12.2,0c0.2,0,0.6,0,0.7-0.2C28,30.3,28.7,29.6,29.5,28.8z M22.5,70.4   c-2.6,3.7-5.2,7.4-7.7,11.1c-0.1,0.1-0.2,0.2-0.2,0.3c0.1,0.4,0.1,1,0.3,1.2c0.3,0.3,0.8,0.3,1.2,0.3c0.3-0.1,0.6-0.4,0.8-0.7   c2.4-3.5,4.9-7,7.3-10.5c0.1-0.2,0.3-0.4,0.3-0.6C23.9,71.2,23.2,70.8,22.5,70.4z M73.2,71.6c0.3,0.5,0.6,0.8,0.8,1.2   c2.3,3.3,4.7,6.7,7,10c0.5,0.7,1.2,0.9,1.8,0.5c0.6-0.4,0.7-1.2,0.2-1.9c-2.2-3.2-4.4-6.3-6.6-9.5c-0.1-0.2-0.4-0.3-0.6-0.4   C75.1,71.5,74.2,71.6,73.2,71.6z M45.5,71.6c0,0.8,0,1.6,0,2.4c0.8,0,1.6,0,2.4,0c0-0.8,0-1.6,0-2.4C47,71.6,46.3,71.6,45.5,71.6z    M45.5,83.5c0.8,0,1.6,0,2.4,0c0-0.8,0-1.6,0-2.3c-0.8,0-1.6,0-2.4,0C45.5,81.9,45.5,82.7,45.5,83.5z"></path>
</g>
</svg>
