<?xml version="1.0" encoding="UTF-8"?>
<!-- Generator: Adobe Illustrator 28.1.0, SVG Export Plug-In . SVG Version: 6.00 Build 0)  -->
<svg xmlns="http://www.w3.org/2000/svg" xmlns:xlink="http://www.w3.org/1999/xlink" version="1.1" id="Layer_1" x="0px" y="0px" viewBox="0 0 93.3 93.2" style="enable-background:new 0 0 93.3 93.2;" xml:space="preserve">
<g>
	<path d="M82.4,79h-4.6c0.4,0.9,0.8,1.7,1.2,2.4c0.1,0.1,0.2,0.2,0.4,0.2c1,0,2,0,3,0V79z M49.4,81.7c1,0,1.9,0,2.9,0   c0.1,0,0.4-0.1,0.4-0.2c0.4-0.8,0.8-1.6,1.3-2.5h-4.6V81.7z M63.1,79c-1.9,0-3.8,0-5.6,0c-0.1,0-0.4,0.1-0.4,0.2   c-0.4,0.8-0.8,1.6-1.3,2.5h7.3V79z M11.7,79c0.4,0.7,0.7,1.3,1,2c0.2,0.5,0.5,0.7,1.1,0.7c1-0.1,2,0,3.1,0c5.3,0,10.5,0,15.8,0   c0.3,0,0.7-0.1,0.8-0.3c0.4-0.7,0.8-1.6,1.2-2.4H11.7z M48,25c1.6-0.7,2.5-1.7,2.7-3.3c0.3-3.8-1.9-6.7-4-9.6   c-0.4,0.6-0.8,1-1.2,1.5c-1.5,2.2-2.8,4.4-3,7.1c-0.1,1.9,1.1,3.8,2.7,4.1v-2.3H48V25z M17.8,57.7c1.9,1.3,3.7,2.5,5.4,3.6   c1.6-1,3.1-2.1,4.7-3c0.5-0.3,0.7-0.6,0.6-1.2c-0.6-3.2-2.2-5.9-4.8-7.9c-0.4-0.3-0.6-0.3-1,0C19.9,51.5,18.2,54.3,17.8,57.7    M85.1,73.5H46.7v2.6h38.5V73.5z M21.5,63.9c-2.5-2.7-5.5-4.1-9.2-4.2c-0.6,0-0.8,0.2-1,0.8c-1.6,5.4,0.9,11.4,5.8,14.1   c0.7,0.4,1.6,0.7,2.5,1.2C18.6,71.4,19.2,67.5,21.5,63.9 M23.8,76.1c0.4,0,0.8,0,1.2-0.1c6.9-1.1,11.4-7.1,10.5-14   c-0.4-2.8-0.1-2.5-2.8-2.2c-7.2,0.8-12.2,8-10.4,15.1C22.5,76.2,22.5,76.2,23.8,76.1 M70,45.9h-0.9c-2.8,0-5.6,0-8.4,0   c-1.1,0-1.6,0.5-1.6,1.4c0,0.8,0.6,1.4,1.6,1.4c4.5,0,9,0,13.6,0c1.5,0,2.7-0.7,3.5-2c1.7-2.7-0.1-6.2-3.3-6.2   c-5.3-0.1-10.6,0-16,0c-0.2,0-0.4,0-0.6,0.1c-3.4,0.7-5.9,3.8-5.6,7.2c0.3,3.6,3.2,6.4,6.7,6.4c6.5,0.1,13,0.1,19.5,0   c4.5,0,7.7-4.4,6.4-8.8c-0.7-2.5-2.4-4-5-4.8c0.1,0.2,0.1,0.3,0.1,0.3c2.8,4.6-0.4,10.6-6.2,10.5c-4.4-0.1-8.7,0-13.1,0   c-0.6,0-1.1-0.1-1.7-0.2c-1.9-0.6-3-2.5-2.8-4.6c0.3-1.9,1.9-3.4,3.9-3.4c2.7,0,5.5,0,8.2,0c0.5,0,1,0,1.5,0V45.9z M77.2,57   c0.3,1.1,0.9,2.2,1,3.4c0.4,4.3-2.7,7.5-7,7.5c-4.5,0-8.9,0-13.4,0c-0.4,0-0.9,0-1.3-0.1c-2.1-0.6-3.3-2.4-3-4.6   c0.2-1.9,2-3.5,4-3.5c3.1,0,6.2,0,9.3,0c0.1,0,0.3,0,0.4,0.1v2.7h-0.6c-2.9,0-5.8,0-8.7,0c-1,0-1.6,0.5-1.6,1.4   c0,0.8,0.6,1.3,1.6,1.3c4.5,0,9.1,0,13.6,0c2.2,0,4-1.8,4-4c0-2.3-1.7-4.2-4-4.2c-6.1,0-12.2-0.1-18.3,0c-3.6,0-6.5,3.1-6.6,6.7   c-0.1,3.9,3,7,7.1,7c8.1,0,16.3,0,24.4,0c0.5,0,0.9,0,1.4-0.1c3.8-0.7,6.2-4.2,5.5-8.1C84.4,58.9,80.8,56.4,77.2,57 M36.5,81.6   h10.1V79c-0.3,0-0.6,0-0.9,0c-1.3,0-1.8-0.5-1.8-1.7c0-1.6,0-3.2,0-4.8c0-1.2,0.5-1.7,1.6-1.7c0.3,0,0.7,0,1.2,0   c-2.7-3.1-3.5-6.4-2.3-10c1.3-3.6,4-5.7,7.8-6.4c-0.2-0.2-0.3-0.4-0.4-0.5c-4.5-5.1-2.5-13.1,3.8-15.5c1.9-0.7,3.9-0.6,5.8-0.6   c0.5,0,1.1,0,1.6,0v-8c-11,1.7-21.9,3.4-32.9,5.1v1c0,5.4,0,10.9,0,16.3c0,0.4-0.1,0.8,0.1,1.1c0.4,1.3,0.9,2.6,1.2,3.8   c1.2,0,2.5,0,3.7,0c1.2,0,1.9,0.5,2.3,1.7c2.1,6,0.4,12.6-4.5,16.7c-0.3,0.2-0.5,0.5-1,0.9h9.1V79c-0.9,0-1.8,0-2.7,0   c-0.3,0-0.6,0.1-0.7,0.3C37.3,80,36.9,80.8,36.5,81.6 M85.2,70.7c0.5,0,0.9,0,1.3,0c1,0.1,1.5,0.6,1.5,1.5c0,1.7,0,3.3,0,5   c0,1.2-0.5,1.7-1.7,1.7c-0.3,0-0.6,0-1.1,0c0,1.3,0,2.5,0,3.7c0,1.3-0.5,1.8-1.8,1.8c-1.6,0-3.2,0-4.8,0c-0.8,0-1.3-0.3-1.7-1   c-0.6-1.3-1.3-2.7-2-3.9c-0.1-0.2-0.5-0.5-0.8-0.5c-2.6,0-5.2,0-7.8,0c-0.1,0-0.2,0-0.4,0.1c0,1.1,0,2.2,0,3.3   c0,1.8-0.4,2.2-2.2,2.2c-16.9,0-33.9,0-50.8,0c-1.1,0-1.8-0.3-2.3-1.4C10.2,82,9.5,80.9,9,79.8c-0.3-0.6-0.6-0.9-1.3-0.8   c-0.8,0.1-1.5,0-2.4,0v-2.8h9.1c-0.4-0.3-0.6-0.5-0.8-0.7c-5-4.1-6.8-10.8-4.6-16.9c0.4-1.1,1.1-1.7,2.2-1.7c1.3,0,2.6,0,3.9,0   c0.4-2.5,1.3-5.1,3.2-7.1c1.2-1.3,2.6-2.4,3.9-3.5c0.6-0.5,1.3-0.5,1.9,0c1,0.8,2,1.5,3.2,2.4v-1c0-4.5,0-9,0-13.5   c0-1.5,0.3-1.8,1.8-2.1c5.2-0.8,10.3-1.6,15.5-2.4c0.2,0,0.5-0.4,0.5-0.6c0-0.5,0.4-1.1-0.5-1.3c-1.5-0.4-2.7-1.2-3.6-2.4   c-1.7-2.3-1.7-4.8-0.9-7.4c1-3.3,2.9-6.1,5.3-8.6c0.7-0.7,1.5-0.8,2.1-0.1c2.7,2.9,4.9,6.1,5.7,10.1c0.8,3.9-1.1,7.2-4.8,8.4   c-0.8,0.3-0.4,0.8-0.5,1.4c1.6-0.2,3.1-0.5,4.6-0.7c3.9-0.6,7.7-1.2,11.6-1.8c1-0.1,1.6,0.5,1.6,1.6c0,2.4,0,4.7,0,7.1   c0,0.7,0,1.4,0,2.3c0.4,0,0.8,0,1.1,0c4,0,8-0.1,12,0.1c4,0.2,7.4,3,8.5,6.9c1.1,3.9-0.3,8.1-3.6,10.4c-0.2,0.2-0.4,0.3-0.7,0.5   C88,58.4,89.9,65.2,85.2,70.7"></path>
	<rect x="32.9" y="37.7" width="2.7" height="11"></rect>
	<rect x="32.9" y="51.5" width="2.7" height="2.6"></rect>
</g>
</svg>
