<?xml version="1.0" encoding="UTF-8"?>
<svg xmlns="http://www.w3.org/2000/svg" id="Layer_1" viewBox="0 0 93.22 73.69">
  <defs>
    <style>.cls-1{fill:#282828;stroke-width:0px;}</style>
  </defs>
  <path class="cls-1" d="m0,50.49c.94-1.28,1.71-1.3,2.74-.05,3.98,4.8,10.48,5.1,14.75.64.33-.35.56-.94.57-1.42.05-2.91.03-5.83.03-8.74,0-.27-.01-.55.02-.82.1-.86.66-1.37,1.45-1.31.84.07,1.25.57,1.26,1.39.02,1.7.01,3.4.01,5.1,0,1.06.13,2.14-.03,3.18-.28,1.82.62,2.92,1.98,3.83.44.29.9.57,1.51.96,0-.57,0-.93,0-1.28,0-11.62,0-23.24,0-34.87,0-4.57,1.92-8.06,6.11-10.02,6.39-3,14.03,1.78,14.21,8.84.08,3.15.02,6.31.03,9.47,0,.33,0,.66,0,1.05h3.4c.02-.23.05-.49.05-.75,0-3.06.02-6.13,0-9.19-.06-6.85-4.76-12.39-11.49-13.6-7.5-1.35-15.09,4.43-15.64,12.02-.21,2.93-.11,5.88-.13,8.82-.02,3.34,0,6.68,0,10.01,0,.24,0,.49,0,.73-.04.95-.53,1.51-1.32,1.53-.82.02-1.38-.57-1.4-1.56-.03-1.36,0-2.73,0-4.1,0-.33,0-.66,0-1.12h-1.14c-4.92,0-9.83,0-14.75,0-.3,0-.61.02-.91-.02-.69-.1-1.09-.51-1.14-1.21-.06-.69.25-1.19.92-1.39.34-.1.72-.11,1.08-.11,4.92,0,9.83,0,14.75,0,.36,0,.71,0,1.19,0,0-.44,0-.79,0-1.14.03-3.49-.1-6.99.13-10.46C18.78,6.38,26.33-.32,34.86.02c6.48.26,11.15,3.43,14.22,9.08.1.18.19.37.34.66.16-.28.3-.49.41-.71C53.19,2.47,60.11-1,67.42.25c6.85,1.17,12.37,7.03,13.26,14.15.17,1.41.15,2.84.16,4.27.02,2.57,0,5.15,0,7.79.4.02.72.05,1.04.05,3.13,0,6.25,0,9.38,0,.36,0,.84-.05,1.05.15.38.35.79.85.85,1.33.08.65-.41,1.12-1.11,1.21-.33.05-.67.03-1,.03-10.92,0-21.85,0-32.77,0-.39,0-.77,0-1.22,0-.02.4-.05.69-.05.99,0,6.46-.02,12.93.02,19.39,0,.51.26,1.13.61,1.49,4.21,4.41,10.75,4.12,14.69-.62,1.08-1.29,1.74-1.29,2.82.02,4.04,4.91,11.04,4.97,15.14.14.12-.14.23-.28.35-.42.64-.74,1.43-.88,2.06-.35.62.52.67,1.28.09,2.02-1.89,2.42-4.3,4.1-7.32,4.76-4.15.92-7.8-.17-10.98-2.93-.23-.2-.45-.41-.75-.69-2.51,2.48-5.49,3.94-9.07,3.94-3.55,0-6.51-1.46-9.01-3.91-5.08,5.04-12.63,5.37-18.12.05-4.93,4.93-12.59,5.38-18.14-.03-1.6,1.56-3.42,2.78-5.59,3.41-4.97,1.45-10.39-.45-13.54-4.75-.09-.12-.19-.22-.28-.33,0-.3,0-.61,0-.91Zm50.83,2.55c.08.05.16.11.24.16.76-.58,1.52-1.16,2.29-1.74.73-.56.96-1.27.96-2.2-.03-9.22-.02-18.45-.02-27.67,0-1.7-.03-3.4,0-5.1.17-7,6.55-11.83,13.08-9.87,4.53,1.36,7.82,5.54,7.25,11.54-.07.76-.59,1.2-1.37,1.19-.78-.02-1.24-.48-1.32-1.24-.06-.57-.01-1.15-.02-1.73-.06-3.9-3.03-7.17-6.76-7.41-4.05-.27-7.58,2.44-7.98,6.46-.29,2.92-.13,5.88-.16,8.82,0,.72,0,1.44,0,2.21h14.9c0-.93,0-1.83,0-2.73.01-.98.55-1.6,1.35-1.61.81,0,1.36.61,1.37,1.59.01.9,0,1.81,0,2.75h3.44c0-3.67.16-7.28-.03-10.87-.48-8.83-9.27-14.85-17.68-12.23-5.68,1.77-9.54,7.04-9.55,13.12-.02,11.96,0,23.91,0,35.87,0,.24,0,.48,0,.71Zm-8.96-26.58c0-3.71.16-7.32-.04-10.91-.24-4.33-4.71-7.44-8.92-6.46-3.55.83-5.85,3.83-5.88,7.74-.02,2.94,0,5.88,0,8.82,0,.26.04.52.07.8h14.78Zm-14.78,18.92v8.74c3.79.45,6.76-.9,9.13-3.72,1-1.18,1.63-1.09,2.74,0,1.08,1.07,2.29,2.08,3.6,2.85,1.67.98,3.57,1.18,5.47.84v-8.72h-20.94Zm20.94-9.42v-6.67h-20.94v6.67h20.94Zm-20.97,6.56h20.97v-3.68h-20.97v3.68Z"></path>
  <path class="cls-1" d="m64.73,69.8c-5.13,5.1-12.79,5.25-18.09.06-.9.67-1.77,1.36-2.69,1.99-.83.56-1.61.42-2.07-.27-.45-.69-.19-1.38.58-2.01,1.03-.84,2.02-1.72,2.96-2.66.81-.81,1.64-.84,2.39.05,4.49,5.35,11.22,5.37,15.66.06.83-.99,1.66-.99,2.48,0,2.22,2.69,5.01,4.16,8.57,3.9,2.72-.19,4.89-1.47,6.68-3.47.14-.16.26-.33.4-.49.63-.74,1.44-.88,2.06-.37.62.51.66,1.33.05,2.1-1.76,2.23-3.97,3.84-6.73,4.56-4.35,1.14-8.21.1-11.58-2.84-.23-.2-.45-.4-.67-.59Z"></path>
  <path class="cls-1" d="m28.5,69.77c-2.02,1.97-4.33,3.38-7.13,3.76-4.94.67-8.9-1.14-11.97-5-.56-.7-.42-1.55.21-2.01.63-.45,1.4-.31,1.99.41,2.23,2.74,5.04,4.22,8.63,3.96,2.82-.2,5.05-1.55,6.85-3.67,1.09-1.29,1.76-1.29,2.83-.03,1.91,2.25,4.28,3.62,7.29,3.73.15,0,.3.02.45.04.79.14,1.3.71,1.27,1.41-.03.74-.63,1.28-1.48,1.29-2.94,0-5.5-1.03-7.77-2.86-.4-.32-.77-.67-1.19-1.03Z"></path>
</svg>
